<mxfile host="65bd71144e">
    <diagram name="Page-1" id="RrzwsBy3iz6KXjTSf011">
        <mxGraphModel dx="725" dy="431" grid="1" gridSize="10" guides="1" tooltips="1" connect="1" arrows="1" fold="1" page="1" pageScale="1" pageWidth="3300" pageHeight="2339" math="0" shadow="0">
            <root>
                <mxCell id="0"/>
                <mxCell id="1" parent="0"/>
                <mxCell id="oKTELMZ_Y3RbrIXZ6wmL-1" value="เริ่มต้น" style="whiteSpace=wrap;strokeWidth=2;" parent="1" vertex="1">
                    <mxGeometry x="383" y="20" width="103" height="54" as="geometry"/>
                </mxCell>
                <mxCell id="oKTELMZ_Y3RbrIXZ6wmL-2" value="เจ้าหน้าที่ รพ.เล็ก ตรวจสอบความจำเป็นในการส่งต่อ" style="whiteSpace=wrap;strokeWidth=2;" parent="1" vertex="1">
                    <mxGeometry x="304" y="124" width="260" height="78" as="geometry"/>
                </mxCell>
                <mxCell id="oKTELMZ_Y3RbrIXZ6wmL-3" value="บันทึกข้อมูลผู้ป่วยและเหตุผลลงใน TRANSFERS" style="whiteSpace=wrap;strokeWidth=2;" parent="1" vertex="1">
                    <mxGeometry x="175" y="275" width="260" height="78" as="geometry"/>
                </mxCell>
                <mxCell id="oKTELMZ_Y3RbrIXZ6wmL-4" value="จบกระบวนการ" style="whiteSpace=wrap;strokeWidth=2;" parent="1" vertex="1">
                    <mxGeometry x="485" y="287" width="157" height="54" as="geometry"/>
                </mxCell>
                <mxCell id="oKTELMZ_Y3RbrIXZ6wmL-5" value="ค้นหา รพ.ใหญ่ที่มี SLOTS ว่าง" style="whiteSpace=wrap;strokeWidth=2;" parent="1" vertex="1">
                    <mxGeometry x="177" y="403" width="257" height="54" as="geometry"/>
                </mxCell>
                <mxCell id="oKTELMZ_Y3RbrIXZ6wmL-6" value="ระบบส่งคำขอจองไปยัง รพ.ใหญ่โดยอัตโนมัติ" style="whiteSpace=wrap;strokeWidth=2;" parent="1" vertex="1">
                    <mxGeometry x="20" y="530" width="260" height="78" as="geometry"/>
                </mxCell>
                <mxCell id="oKTELMZ_Y3RbrIXZ6wmL-7" value="แจ้งแพทย์เพื่อพิจารณาทางเลือกอื่น" style="whiteSpace=wrap;strokeWidth=2;" parent="1" vertex="1">
                    <mxGeometry x="330" y="530" width="260" height="78" as="geometry"/>
                </mxCell>
                <mxCell id="oKTELMZ_Y3RbrIXZ6wmL-8" value="รพ.ใหญ่ยืนยันการจอง และลดจำนวนคิวใน SLOTS" style="whiteSpace=wrap;strokeWidth=2;" parent="1" vertex="1">
                    <mxGeometry x="20" y="658" width="260" height="78" as="geometry"/>
                </mxCell>
                <mxCell id="oKTELMZ_Y3RbrIXZ6wmL-9" value="แจ้ง รพ.เล็กให้แจ้งผู้ป่วย" style="whiteSpace=wrap;strokeWidth=2;" parent="1" vertex="1">
                    <mxGeometry x="40" y="786" width="221" height="54" as="geometry"/>
                </mxCell>
                <mxCell id="oKTELMZ_Y3RbrIXZ6wmL-10" value="ผู้ป่วยยืนยันการเข้ารับบริการ" style="whiteSpace=wrap;strokeWidth=2;" parent="1" vertex="1">
                    <mxGeometry x="27" y="890" width="246" height="54" as="geometry"/>
                </mxCell>
                <mxCell id="oKTELMZ_Y3RbrIXZ6wmL-11" value="รพ.เล็กออกเอกสารส่งตัวและแจ้งวันนัดหมาย" style="whiteSpace=wrap;strokeWidth=2;" parent="1" vertex="1">
                    <mxGeometry x="20" y="994" width="260" height="78" as="geometry"/>
                </mxCell>
                <mxCell id="oKTELMZ_Y3RbrIXZ6wmL-12" value="ผู้ป่วยเดินทางไป รพ.ใหญ่ตามวันนัด" style="whiteSpace=wrap;strokeWidth=2;" parent="1" vertex="1">
                    <mxGeometry x="20" y="1122" width="260" height="78" as="geometry"/>
                </mxCell>
                <mxCell id="oKTELMZ_Y3RbrIXZ6wmL-13" value="รพ.ใหญ่ทำการตรวจ CT Scan" style="whiteSpace=wrap;strokeWidth=2;" parent="1" vertex="1">
                    <mxGeometry x="22" y="1250" width="255" height="54" as="geometry"/>
                </mxCell>
                <mxCell id="oKTELMZ_Y3RbrIXZ6wmL-14" value="บันทึกผลตรวจลงใน SCAN_RESULTS และแจ้งกลับไปยัง รพ.เล็ก" style="whiteSpace=wrap;strokeWidth=2;" parent="1" vertex="1">
                    <mxGeometry x="20" y="1354" width="260" height="102" as="geometry"/>
                </mxCell>
                <mxCell id="oKTELMZ_Y3RbrIXZ6wmL-15" value="แพทย์ รพ.เล็กวิเคราะห์ผลจาก SCAN_RESULTS และแจ้งผู้ป่วย" style="whiteSpace=wrap;strokeWidth=2;" parent="1" vertex="1">
                    <mxGeometry x="20" y="1506" width="260" height="78" as="geometry"/>
                </mxCell>
                <mxCell id="oKTELMZ_Y3RbrIXZ6wmL-16" value="เสร็จสิ้น" style="whiteSpace=wrap;strokeWidth=2;" parent="1" vertex="1">
                    <mxGeometry x="95" y="1634" width="110" height="54" as="geometry"/>
                </mxCell>
                <mxCell id="oKTELMZ_Y3RbrIXZ6wmL-17" value="" style="curved=1;startArrow=none;endArrow=block;exitX=0.5;exitY=1;entryX=0.5;entryY=0;rounded=0;" parent="1" source="oKTELMZ_Y3RbrIXZ6wmL-1" target="oKTELMZ_Y3RbrIXZ6wmL-2" edge="1">
                    <mxGeometry relative="1" as="geometry">
                        <Array as="points"/>
                    </mxGeometry>
                </mxCell>
                <mxCell id="oKTELMZ_Y3RbrIXZ6wmL-18" value="ต้องส่งต่อ" style="curved=1;startArrow=none;endArrow=block;exitX=0.24;exitY=1;entryX=0.5;entryY=0;rounded=0;" parent="1" source="oKTELMZ_Y3RbrIXZ6wmL-2" target="oKTELMZ_Y3RbrIXZ6wmL-3" edge="1">
                    <mxGeometry relative="1" as="geometry">
                        <Array as="points">
                            <mxPoint x="305" y="238"/>
                        </Array>
                    </mxGeometry>
                </mxCell>
                <mxCell id="oKTELMZ_Y3RbrIXZ6wmL-19" value="ไม่ต้องส่งต่อ" style="curved=1;startArrow=none;endArrow=block;exitX=0.76;exitY=1;entryX=0.5;entryY=0;rounded=0;" parent="1" source="oKTELMZ_Y3RbrIXZ6wmL-2" target="oKTELMZ_Y3RbrIXZ6wmL-4" edge="1">
                    <mxGeometry relative="1" as="geometry">
                        <Array as="points">
                            <mxPoint x="563" y="238"/>
                        </Array>
                    </mxGeometry>
                </mxCell>
                <mxCell id="oKTELMZ_Y3RbrIXZ6wmL-20" value="" style="curved=1;startArrow=none;endArrow=block;exitX=0.5;exitY=1;entryX=0.5;entryY=0;rounded=0;" parent="1" source="oKTELMZ_Y3RbrIXZ6wmL-3" target="oKTELMZ_Y3RbrIXZ6wmL-5" edge="1">
                    <mxGeometry relative="1" as="geometry">
                        <Array as="points"/>
                    </mxGeometry>
                </mxCell>
                <mxCell id="oKTELMZ_Y3RbrIXZ6wmL-21" value="มีคิวว่าง" style="curved=1;startArrow=none;endArrow=block;exitX=0.24;exitY=1;entryX=0.5;entryY=-0.01;rounded=0;" parent="1" source="oKTELMZ_Y3RbrIXZ6wmL-5" target="oKTELMZ_Y3RbrIXZ6wmL-6" edge="1">
                    <mxGeometry relative="1" as="geometry">
                        <Array as="points">
                            <mxPoint x="150" y="493"/>
                        </Array>
                    </mxGeometry>
                </mxCell>
                <mxCell id="oKTELMZ_Y3RbrIXZ6wmL-22" value="ไม่มีคิวว่าง" style="curved=1;startArrow=none;endArrow=block;exitX=0.75;exitY=1;entryX=0.5;entryY=-0.01;rounded=0;" parent="1" source="oKTELMZ_Y3RbrIXZ6wmL-5" target="oKTELMZ_Y3RbrIXZ6wmL-7" edge="1">
                    <mxGeometry relative="1" as="geometry">
                        <Array as="points">
                            <mxPoint x="460" y="493"/>
                        </Array>
                    </mxGeometry>
                </mxCell>
                <mxCell id="oKTELMZ_Y3RbrIXZ6wmL-23" value="" style="curved=1;startArrow=none;endArrow=block;exitX=0.5;exitY=0.99;entryX=0.5;entryY=-0.01;rounded=0;" parent="1" source="oKTELMZ_Y3RbrIXZ6wmL-6" target="oKTELMZ_Y3RbrIXZ6wmL-8" edge="1">
                    <mxGeometry relative="1" as="geometry">
                        <Array as="points"/>
                    </mxGeometry>
                </mxCell>
                <mxCell id="oKTELMZ_Y3RbrIXZ6wmL-24" value="" style="curved=1;startArrow=none;endArrow=block;exitX=0.5;exitY=0.99;entryX=0.5;entryY=-0.01;rounded=0;" parent="1" source="oKTELMZ_Y3RbrIXZ6wmL-8" target="oKTELMZ_Y3RbrIXZ6wmL-9" edge="1">
                    <mxGeometry relative="1" as="geometry">
                        <Array as="points"/>
                    </mxGeometry>
                </mxCell>
                <mxCell id="oKTELMZ_Y3RbrIXZ6wmL-25" value="" style="curved=1;startArrow=none;endArrow=block;exitX=0.5;exitY=0.99;entryX=0.5;entryY=-0.01;rounded=0;" parent="1" source="oKTELMZ_Y3RbrIXZ6wmL-9" target="oKTELMZ_Y3RbrIXZ6wmL-10" edge="1">
                    <mxGeometry relative="1" as="geometry">
                        <Array as="points"/>
                    </mxGeometry>
                </mxCell>
                <mxCell id="oKTELMZ_Y3RbrIXZ6wmL-26" value="" style="curved=1;startArrow=none;endArrow=block;exitX=0.5;exitY=0.99;entryX=0.5;entryY=-0.01;rounded=0;" parent="1" source="oKTELMZ_Y3RbrIXZ6wmL-10" target="oKTELMZ_Y3RbrIXZ6wmL-11" edge="1">
                    <mxGeometry relative="1" as="geometry">
                        <Array as="points"/>
                    </mxGeometry>
                </mxCell>
                <mxCell id="oKTELMZ_Y3RbrIXZ6wmL-27" value="" style="curved=1;startArrow=none;endArrow=block;exitX=0.5;exitY=0.99;entryX=0.5;entryY=-0.01;rounded=0;" parent="1" source="oKTELMZ_Y3RbrIXZ6wmL-11" target="oKTELMZ_Y3RbrIXZ6wmL-12" edge="1">
                    <mxGeometry relative="1" as="geometry">
                        <Array as="points"/>
                    </mxGeometry>
                </mxCell>
                <mxCell id="oKTELMZ_Y3RbrIXZ6wmL-28" value="" style="curved=1;startArrow=none;endArrow=block;exitX=0.5;exitY=0.99;entryX=0.5;entryY=-0.01;rounded=0;" parent="1" source="oKTELMZ_Y3RbrIXZ6wmL-12" target="oKTELMZ_Y3RbrIXZ6wmL-13" edge="1">
                    <mxGeometry relative="1" as="geometry">
                        <Array as="points"/>
                    </mxGeometry>
                </mxCell>
                <mxCell id="oKTELMZ_Y3RbrIXZ6wmL-29" value="" style="curved=1;startArrow=none;endArrow=block;exitX=0.5;exitY=0.99;entryX=0.5;entryY=0;rounded=0;" parent="1" source="oKTELMZ_Y3RbrIXZ6wmL-13" target="oKTELMZ_Y3RbrIXZ6wmL-14" edge="1">
                    <mxGeometry relative="1" as="geometry">
                        <Array as="points"/>
                    </mxGeometry>
                </mxCell>
                <mxCell id="oKTELMZ_Y3RbrIXZ6wmL-30" value="" style="curved=1;startArrow=none;endArrow=block;exitX=0.5;exitY=1;entryX=0.5;entryY=-0.01;rounded=0;" parent="1" source="oKTELMZ_Y3RbrIXZ6wmL-14" target="oKTELMZ_Y3RbrIXZ6wmL-15" edge="1">
                    <mxGeometry relative="1" as="geometry">
                        <Array as="points"/>
                    </mxGeometry>
                </mxCell>
                <mxCell id="oKTELMZ_Y3RbrIXZ6wmL-31" value="" style="curved=1;startArrow=none;endArrow=block;exitX=0.5;exitY=0.99;entryX=0.5;entryY=-0.01;rounded=0;" parent="1" source="oKTELMZ_Y3RbrIXZ6wmL-15" target="oKTELMZ_Y3RbrIXZ6wmL-16" edge="1">
                    <mxGeometry relative="1" as="geometry">
                        <Array as="points"/>
                    </mxGeometry>
                </mxCell>
            </root>
        </mxGraphModel>
    </diagram>
</mxfile>